# WaveFront *.obj file (generated by Autodesk ATF)

mtllib ee377bbb-b29c-4d81-a750-b337237ee3bb.mtl

g Body1

v 125.000000 210.000000 -59.367516
v 121.098194 213.901806 -58.983222
v 117.346331 217.653669 -57.845107
v 113.888595 221.111405 -55.996908
v 110.857864 224.142136 -53.509652
v 108.370608 226.629392 -50.478921
v 106.522409 228.477591 -47.021185
v 105.384294 229.615706 -43.269323
v 105.096305 229.903695 -41.327859
v 105.000000 230.000000 -39.367516
v 105.000000 230.000000 105.000000
v 105.096305 229.903695 106.960343
v 105.384294 229.615706 108.901806
v 106.522409 228.477591 112.653669
v 108.370608 226.629392 116.111405
v 110.857864 224.142136 119.142136
v 113.888595 221.111405 121.629392
v 117.346331 217.653669 123.477591
v 121.098194 213.901806 124.615706
v 125.000000 210.000000 125.000000
v -107.092744 230.000000 105.000000
v -107.189049 229.903695 106.960343
v -107.477038 229.615706 108.901806
v -108.615153 228.477591 112.653669
v -110.463352 226.629392 116.111405
v -112.950608 224.142136 119.142136
v -115.981339 221.111405 121.629392
v -119.439075 217.653669 123.477591
v -123.190938 213.901806 124.615706
v -127.092744 210.000000 125.000000
v -107.092744 230.000000 -39.367516
v -107.189049 229.903695 -41.327859
v -107.477038 229.615706 -43.269323
v -108.615153 228.477591 -47.021185
v -110.463352 226.629392 -50.478921
v -112.950608 224.142136 -53.509652
v -115.981339 221.111405 -55.996908
v -119.439075 217.653669 -57.845107
v -123.190938 213.901806 -58.983222
v -127.092744 210.000000 -59.367516
vt -4.609188 -1.414214 0.000000
vt 13.827564 -1.414214 0.000000
vt -4.570758 -0.862415 0.000000
vt 13.789134 -0.862415 0.000000
vt -4.456947 -0.331821 0.000000
vt 13.675323 -0.331821 0.000000
vt -4.272127 0.157176 0.000000
vt 13.490503 0.157176 0.000000
vt -4.023401 0.585786 0.000000
vt 13.241777 0.585786 0.000000
vt -3.720328 0.937538 0.000000
vt 12.938704 0.937538 0.000000
vt -2.609188 1.414214 0.000000
vt 11.827564 1.414214 0.000000
vt 12.592931 1.198912 0.000000
vt 12.217744 1.359866 0.000000
vt 12.023598 1.400594 0.000000
vt -2.805222 1.400594 0.000000
vt -2.999369 1.359866 0.000000
vt -3.374555 1.198912 0.000000
vt 6.302319 1.570796 0.000000
vt -18.906956 1.570796 0.000000
vt 5.912138 1.178097 0.000000
vt -18.516775 1.178097 0.000000
vt -18.141589 0.785398 0.000000
vt 5.536952 0.785398 0.000000
vt -17.795815 0.392699 0.000000
vt 5.191178 0.392699 0.000000
vt 4.888105 0.000000 0.000000
vt -17.492742 0.000000 0.000000
vt 4.639379 -0.392699 0.000000
vt -17.244017 -0.392699 0.000000
vt -17.059197 -0.785398 0.000000
vt 4.454560 -0.785398 0.000000
vt -16.945385 -1.178097 0.000000
vt 4.340748 -1.178097 0.000000
vt 4.311949 -1.374447 0.000000
vt -16.916586 -1.374447 0.000000
vt 4.302319 -1.570796 0.000000
vt -16.906956 -1.570796 0.000000
vt -2.805222 1.400594 0.000000
vt -2.999369 1.359866 0.000000
vt -2.609188 1.414214 0.000000
vt -3.374555 1.198912 0.000000
vt -3.720328 0.937538 0.000000
vt -4.023401 0.585786 0.000000
vt 13.241777 0.585786 0.000000
vt 12.938704 0.937538 0.000000
vt 11.827564 1.414214 0.000000
vt 12.592931 1.198912 0.000000
vt 12.217744 1.359866 0.000000
vt 13.490503 0.157176 0.000000
vt -4.272127 0.157176 0.000000
vt 13.675323 -0.331821 0.000000
vt -4.456947 -0.331821 0.000000
vt 13.789134 -0.862415 0.000000
vt -4.570758 -0.862415 0.000000
vt 13.827564 -1.414214 0.000000
vt -4.609188 -1.414214 0.000000
vt 12.023598 1.400594 0.000000
vt -7.218376 -10.604637 0.000000
vt 7.218376 -10.604637 0.000000
vt -7.218376 10.604637 0.000000
vt 7.218376 10.604637 0.000000
vt 6.302319 1.570796 0.000000
vt -18.906956 1.570796 0.000000
vt 5.912138 1.178097 0.000000
vt -18.516775 1.178097 0.000000
vt -18.141589 0.785398 0.000000
vt 5.536952 0.785398 0.000000
vt -17.795815 0.392699 0.000000
vt 5.191178 0.392699 0.000000
vt 4.888105 -0.000000 0.000000
vt -17.492742 0.000000 0.000000
vt 4.639379 -0.392699 0.000000
vt -17.244017 -0.392699 0.000000
vt -17.059197 -0.785398 0.000000
vt 4.454560 -0.785398 0.000000
vt -16.945385 -1.178097 0.000000
vt 4.340748 -1.178097 0.000000
vt 4.311949 -1.374447 0.000000
vt -16.916586 -1.374447 0.000000
vt 4.302319 -1.570796 0.000000
vt -16.906956 -1.570796 0.000000
vt -9.218376 -12.604637 0.000000
vt 9.218376 -12.604637 0.000000
vt -9.218376 12.604637 0.000000
vt 9.218376 12.604637 0.000000
vn 0.070711 0.070711 0.000000
vn 0.070711 0.070711 0.000000
vn 0.070711 0.070711 0.000000
vn 0.070711 0.070711 0.000000
vn 0.070711 0.070711 0.000000
vn 0.070711 0.070711 0.000000
vn 0.070711 0.070711 0.000000
vn 0.070711 0.070711 0.000000
vn 0.070711 0.070711 0.000000
vn 0.070711 0.070711 0.000000
vn 0.070711 0.070711 0.000000
vn 0.070711 0.070711 0.000000
vn 0.070711 0.070711 0.000000
vn 0.070711 0.070711 0.000000
vn 0.070711 0.070711 0.000000
vn 0.070711 0.070711 0.000000
vn 0.070711 0.070711 0.000000
vn 0.070711 0.070711 0.000000
vn 0.070711 0.070711 0.000000
vn 0.070711 0.070711 0.000000
vn 0.000000 0.000000 0.100000
vn 0.000000 0.000000 0.100000
vn 0.000000 0.019509 0.098079
vn 0.000000 0.019509 0.098079
vn 0.000000 0.038268 0.092388
vn 0.000000 0.038268 0.092388
vn 0.000000 0.055557 0.083147
vn 0.000000 0.055557 0.083147
vn 0.000000 0.070711 0.070711
vn 0.000000 0.070711 0.070711
vn 0.000000 0.083147 0.055557
vn 0.000000 0.083147 0.055557
vn 0.000000 0.092388 0.038268
vn 0.000000 0.092388 0.038268
vn 0.000000 0.098079 0.019509
vn 0.000000 0.098079 0.019509
vn 0.000000 0.099518 0.009802
vn 0.000000 0.099518 0.009802
vn -0.000000 0.100000 -0.000000
vn -0.000000 0.100000 -0.000000
vn -0.070711 0.070711 0.000000
vn -0.070711 0.070711 0.000000
vn -0.070711 0.070711 0.000000
vn -0.070711 0.070711 0.000000
vn -0.070711 0.070711 0.000000
vn -0.070711 0.070711 0.000000
vn -0.070711 0.070711 0.000000
vn -0.070711 0.070711 0.000000
vn -0.070711 0.070711 0.000000
vn -0.070711 0.070711 0.000000
vn -0.070711 0.070711 0.000000
vn -0.070711 0.070711 0.000000
vn -0.070711 0.070711 0.000000
vn -0.070711 0.070711 0.000000
vn -0.070711 0.070711 0.000000
vn -0.070711 0.070711 0.000000
vn -0.070711 0.070711 0.000000
vn -0.070711 0.070711 0.000000
vn -0.070711 0.070711 0.000000
vn -0.070711 0.070711 0.000000
vn 0.000000 0.100000 0.000000
vn 0.000000 0.100000 0.000000
vn 0.000000 0.000000 -0.100000
vn 0.000000 0.000000 -0.100000
vn -0.000000 0.019509 -0.098079
vn -0.000000 0.019509 -0.098079
vn -0.000000 0.038268 -0.092388
vn -0.000000 0.038268 -0.092388
vn -0.000000 0.055557 -0.083147
vn -0.000000 0.055557 -0.083147
vn -0.000000 0.070711 -0.070711
vn -0.000000 0.070711 -0.070711
vn -0.000000 0.083147 -0.055557
vn -0.000000 0.083147 -0.055557
vn -0.000000 0.092388 -0.038268
vn -0.000000 0.092388 -0.038268
vn -0.000000 0.098079 -0.019509
vn -0.000000 0.098079 -0.019509
vn -0.000000 0.099518 -0.009802
vn -0.000000 0.099518 -0.009802
vn 0.000000 -0.100000 0.000000
vn 0.000000 -0.100000 0.000000
vn 0.000000 -0.100000 0.000000
vn 0.000000 -0.100000 0.000000
usemtl Steel_-_Satin
f 20/1/1 1/2/2 19/3/3
f 19/3/3 1/2/2 2/4/4
f 19/3/3 2/4/4 18/5/5
f 18/5/5 2/4/4 3/6/6
f 18/5/5 3/6/6 17/7/7
f 17/7/7 3/6/6 4/8/8
f 17/7/7 4/8/8 16/9/9
f 16/9/9 4/8/8 5/10/10
f 16/9/9 5/10/10 15/11/11
f 15/11/11 5/10/10 6/12/12
f 15/11/11 6/12/12 11/13/13
f 11/13/13 6/12/12 10/14/14
f 10/14/14 6/12/12 7/15/15
f 10/14/14 7/15/15 8/16/16
f 8/16/16 9/17/17 10/14/14
f 12/18/18 13/19/19 11/13/13
f 11/13/13 13/19/19 14/20/20
f 11/13/13 14/20/20 15/11/11
f 30/21/21 20/22/22 29/23/23
f 29/23/23 20/22/22 19/24/24
f 29/23/23 19/24/24 18/25/25
f 29/23/23 18/25/25 28/26/26
f 28/26/26 18/25/25 17/27/27
f 28/26/26 17/27/27 27/28/28
f 27/28/28 17/27/27 26/29/29
f 26/29/29 17/27/27 16/30/30
f 26/29/29 16/30/30 25/31/31
f 25/31/31 16/30/30 15/32/32
f 25/31/31 15/32/32 14/33/33
f 25/31/31 14/33/33 24/34/34
f 24/34/34 14/33/33 13/35/35
f 24/34/34 13/35/35 23/36/36
f 23/36/36 13/35/35 22/37/37
f 22/37/37 13/35/35 12/38/38
f 22/37/37 12/38/38 21/39/39
f 21/39/39 12/38/38 11/40/40
f 32/41/41 33/42/42 31/43/43
f 31/43/43 33/42/42 34/44/44
f 31/43/43 34/44/44 35/45/45
f 36/46/46 26/47/47 35/45/45
f 35/45/45 26/47/47 25/48/48
f 35/45/45 25/48/48 31/43/43
f 31/43/43 25/48/48 21/49/49
f 21/49/49 25/48/48 24/50/50
f 21/49/49 24/50/50 23/51/51
f 26/47/47 36/46/46 27/52/52
f 27/52/52 36/46/46 37/53/53
f 27/52/52 37/53/53 28/54/54
f 28/54/54 37/53/53 38/55/55
f 28/54/54 38/55/55 29/56/56
f 29/56/56 38/55/55 39/57/57
f 29/56/56 39/57/57 30/58/58
f 30/58/58 39/57/57 40/59/59
f 23/51/51 22/60/60 21/49/49
f 31/61/61 21/62/39 10/63/62
f 10/63/62 21/62/39 11/64/40
f 1/65/63 40/66/64 2/67/65
f 2/67/65 40/66/64 39/68/66
f 2/67/65 39/68/66 38/69/67
f 2/67/65 38/69/67 3/70/68
f 3/70/68 38/69/67 37/71/69
f 3/70/68 37/71/69 4/72/70
f 4/72/70 37/71/69 5/73/71
f 5/73/71 37/71/69 36/74/72
f 5/73/71 36/74/72 6/75/73
f 6/75/73 36/74/72 35/76/74
f 6/75/73 35/76/74 34/77/75
f 6/75/73 34/77/75 7/78/76
f 7/78/76 34/77/75 33/79/77
f 7/78/76 33/79/77 8/80/78
f 8/80/78 33/79/77 9/81/79
f 9/81/79 33/79/77 32/82/80
f 9/81/79 32/82/80 10/83/62
f 10/83/62 32/82/80 31/84/61
f 30/85/81 40/86/82 20/87/83
f 20/87/83 40/86/82 1/88/84
# 40 vertices
# 88 texture params
# 84 normals
# 76 facets

# 1 groups
