# WaveFront *.obj file (generated by Autodesk ATF)

mtllib 3a3bc6d1-e1c3-470a-8ba2-e21897311a4f.mtl

g Body4

v 450.000000 60.396770 25.000000
v 450.000000 60.396770 -25.000000
v 525.000000 60.396770 -25.000000
v 525.000000 60.396770 25.000000
v 450.000000 100.000000 -25.000000
v 450.000000 100.000000 25.000000
v 525.000000 100.000000 25.000000
v 525.000000 100.000000 -25.000000
v 450.000000 0.000000 25.000000
v 450.000000 0.000000 -25.000000
v 450.000000 175.000000 -25.000000
v 450.000000 175.000000 25.000000
v 442.201973 119.587140 62.500000
v 407.798027 119.587140 62.500000
v 407.798027 144.587140 62.500000
v 442.201973 144.587140 62.500000
v 407.798027 144.587140 100.000000
v 442.201973 144.587140 100.000000
v 442.201973 119.587140 25.000000
v 407.798027 119.587140 25.000000
v 442.201973 80.412860 100.000000
v 407.798027 80.412860 100.000000
v 407.798027 80.412860 25.000000
v 442.201973 80.412860 25.000000
v 400.000000 0.000000 25.000000
v 400.000000 175.000000 25.000000
v 400.000000 0.000000 -25.000000
v 400.000000 175.000000 -25.000000
vt -0.000000 0.000000 0.000000
vt 5.000000 0.000000 0.000000
vt -0.000000 7.500000 0.000000
vt 5.000000 7.500000 0.000000
vt 0.000000 0.000000 0.000000
vt 5.000000 0.000000 0.000000
vt 0.000000 7.500000 0.000000
vt 5.000000 7.500000 0.000000
vt 2.500000 1.980162 0.000000
vt -2.500000 1.980162 0.000000
vt 2.500000 -1.980162 0.000000
vt -2.500000 -1.980162 0.000000
vt 5.000000 6.039677 0.000000
vt 0.000000 6.039677 0.000000
vt 5.000000 0.000000 0.000000
vt 0.000000 0.000000 0.000000
vt 0.000000 10.000000 0.000000
vt 5.000000 10.000000 0.000000
vt 0.000000 17.500000 0.000000
vt 5.000000 17.500000 0.000000
vt -0.000000 0.000000 0.000000
vt 3.440395 0.000000 0.000000
vt -0.000000 2.500000 0.000000
vt 3.440395 2.500000 0.000000
vt -1.875000 -1.720197 0.000000
vt 1.875000 -1.720197 0.000000
vt -1.875000 1.720197 0.000000
vt 1.875000 1.720197 0.000000
vt 3.440395 3.750000 0.000000
vt 0.000000 3.750000 0.000000
vt 3.440395 0.000000 0.000000
vt 0.000000 0.000000 0.000000
vt 1.720197 4.458714 0.000000
vt -1.720197 4.458714 0.000000
vt 1.720197 -1.958714 0.000000
vt -1.720197 -1.958714 0.000000
vt 0.000000 0.000000 0.000000
vt 3.440395 0.000000 0.000000
vt 0.000000 7.500000 0.000000
vt 3.440395 7.500000 0.000000
vt 0.000000 0.000000 0.000000
vt 3.917428 0.000000 0.000000
vt 0.000000 3.750000 0.000000
vt 3.917428 7.500000 0.000000
vt -2.500000 7.500000 0.000000
vt -2.500000 3.750000 0.000000
vt 3.917428 0.000000 0.000000
vt 3.917428 3.750000 0.000000
vt 0.000000 0.000000 0.000000
vt 0.000000 7.500000 0.000000
vt 6.417428 7.500000 0.000000
vt 6.417428 3.750000 0.000000
vt 0.779803 8.041286 0.000000
vt 5.000000 6.039677 0.000000
vt 4.220197 8.041286 0.000000
vt 5.000000 10.000000 0.000000
vt 4.220197 11.958714 0.000000
vt 5.000000 17.500000 0.000000
vt 0.000000 17.500000 0.000000
vt 0.779803 11.958714 0.000000
vt 0.000000 0.000000 0.000000
vt 5.000000 0.000000 0.000000
vt 12.500000 6.039677 0.000000
vt 12.500000 10.000000 0.000000
vt 0.000000 0.000000 0.000000
vt 5.000000 0.000000 0.000000
vt 0.000000 17.500000 0.000000
vt 5.000000 17.500000 0.000000
vt 0.000000 0.000000 0.000000
vt 5.000000 0.000000 0.000000
vt 0.000000 6.039677 0.000000
vt 0.000000 10.000000 0.000000
vt -7.500000 10.000000 0.000000
vt 5.000000 17.500000 0.000000
vt 0.000000 17.500000 0.000000
vt -7.500000 6.039677 0.000000
vt 2.500000 2.500000 0.000000
vt -2.500000 2.500000 0.000000
vt 2.500000 -2.500000 0.000000
vt -2.500000 -2.500000 0.000000
vt -2.500000 -2.500000 0.000000
vt 2.500000 -2.500000 0.000000
vt -2.500000 2.500000 0.000000
vt 2.500000 2.500000 0.000000
vn 0.000000 -0.100000 0.000000
vn 0.000000 -0.100000 0.000000
vn 0.000000 -0.100000 0.000000
vn 0.000000 -0.100000 0.000000
vn 0.000000 0.100000 0.000000
vn 0.000000 0.100000 0.000000
vn 0.000000 0.100000 0.000000
vn 0.000000 0.100000 0.000000
vn 0.100000 0.000000 0.000000
vn 0.100000 0.000000 0.000000
vn 0.100000 0.000000 0.000000
vn 0.100000 0.000000 0.000000
vn 0.100000 -0.000000 0.000000
vn 0.100000 -0.000000 0.000000
vn 0.100000 -0.000000 0.000000
vn 0.100000 -0.000000 0.000000
vn 0.100000 -0.000000 0.000000
vn 0.100000 -0.000000 0.000000
vn 0.100000 -0.000000 0.000000
vn 0.100000 -0.000000 0.000000
vn 0.000000 0.000000 -0.100000
vn 0.000000 0.000000 -0.100000
vn 0.000000 0.000000 -0.100000
vn 0.000000 0.000000 -0.100000
vn 0.000000 0.100000 0.000000
vn 0.000000 0.100000 0.000000
vn 0.000000 0.100000 0.000000
vn 0.000000 0.100000 0.000000
vn 0.000000 0.100000 0.000000
vn 0.000000 0.100000 0.000000
vn 0.000000 0.100000 0.000000
vn 0.000000 0.100000 0.000000
vn 0.000000 0.000000 0.100000
vn 0.000000 0.000000 0.100000
vn 0.000000 0.000000 0.100000
vn 0.000000 0.000000 0.100000
vn 0.000000 -0.100000 0.000000
vn 0.000000 -0.100000 0.000000
vn 0.000000 -0.100000 0.000000
vn 0.000000 -0.100000 0.000000
vn -0.100000 0.000000 0.000000
vn -0.100000 0.000000 0.000000
vn -0.100000 0.000000 0.000000
vn -0.100000 0.000000 0.000000
vn -0.100000 0.000000 0.000000
vn -0.100000 0.000000 0.000000
vn 0.100000 0.000000 0.000000
vn 0.100000 0.000000 0.000000
vn 0.100000 0.000000 0.000000
vn 0.100000 0.000000 0.000000
vn 0.100000 0.000000 0.000000
vn 0.100000 0.000000 0.000000
vn 0.000000 0.000000 0.100000
vn 0.000000 0.000000 0.100000
vn 0.000000 0.000000 0.100000
vn 0.000000 0.000000 0.100000
vn 0.000000 0.000000 0.100000
vn 0.000000 0.000000 0.100000
vn 0.000000 0.000000 0.100000
vn 0.000000 0.000000 0.100000
vn 0.000000 0.000000 0.100000
vn 0.000000 0.000000 0.100000
vn 0.000000 0.000000 0.100000
vn 0.000000 0.000000 0.100000
vn -0.100000 0.000000 0.000000
vn -0.100000 0.000000 0.000000
vn -0.100000 0.000000 0.000000
vn -0.100000 0.000000 0.000000
vn 0.000000 0.000000 -0.100000
vn 0.000000 0.000000 -0.100000
vn 0.000000 0.000000 -0.100000
vn 0.000000 0.000000 -0.100000
vn 0.000000 0.000000 -0.100000
vn 0.000000 0.000000 -0.100000
vn 0.000000 0.000000 -0.100000
vn 0.000000 0.000000 -0.100000
vn 0.000000 0.100000 0.000000
vn 0.000000 0.100000 0.000000
vn 0.000000 0.100000 0.000000
vn 0.000000 0.100000 0.000000
vn 0.000000 -0.100000 0.000000
vn 0.000000 -0.100000 0.000000
vn 0.000000 -0.100000 0.000000
vn 0.000000 -0.100000 0.000000
usemtl Steel_-_Satin
f 1/1/1 2/2/2 4/3/3
f 4/3/3 2/2/2 3/4/4
f 5/5/5 6/6/6 8/7/7
f 8/7/7 6/6/6 7/8/8
f 8/9/9 7/10/10 3/11/11
f 3/11/11 7/10/10 4/12/12
f 2/13/13 1/14/14 10/15/15
f 10/15/15 1/14/14 9/16/16
f 6/17/17 5/18/18 12/19/19
f 12/19/19 5/18/18 11/20/20
f 13/21/21 14/22/22 16/23/23
f 16/23/23 14/22/22 15/24/24
f 15/25/25 17/26/26 16/27/27
f 16/27/27 17/26/26 18/28/28
f 14/29/29 13/30/30 20/31/31
f 20/31/31 13/30/30 19/32/32
f 18/33/33 17/34/34 21/35/35
f 21/35/35 17/34/34 22/36/36
f 23/37/37 24/38/38 22/39/39
f 22/39/39 24/38/38 21/40/40
f 20/41/41 23/42/42 14/43/43
f 14/43/43 23/42/42 22/44/44
f 14/43/43 22/44/44 17/45/45
f 17/45/45 15/46/46 14/43/43
f 19/47/47 13/48/48 24/49/49
f 24/49/49 13/48/48 21/50/50
f 21/50/50 13/48/48 18/51/51
f 18/51/51 13/48/48 16/52/52
f 23/53/53 1/54/54 24/55/55
f 24/55/55 1/54/54 6/56/56
f 24/55/55 6/56/56 19/57/57
f 19/57/57 6/56/56 12/58/58
f 19/57/57 12/58/58 26/59/59
f 20/60/60 26/59/59 23/53/53
f 23/53/53 26/59/59 25/61/61
f 23/53/53 25/61/61 1/54/54
f 1/54/54 25/61/61 9/62/62
f 20/60/60 19/57/57 26/59/59
f 1/54/54 4/63/63 6/56/56
f 6/56/56 4/63/63 7/64/64
f 27/65/65 25/66/66 28/67/67
f 28/67/67 25/66/66 26/68/68
f 10/69/69 27/70/70 2/71/71
f 2/71/71 27/70/70 5/72/72
f 2/71/71 5/72/72 8/73/73
f 27/70/70 28/74/74 5/72/72
f 5/72/72 28/74/74 11/75/75
f 8/73/73 3/76/76 2/71/71
f 12/77/77 11/78/78 26/79/79
f 26/79/79 11/78/78 28/80/80
f 9/81/81 25/82/82 10/83/83
f 10/83/83 25/82/82 27/84/84
# 28 vertices
# 84 texture params
# 84 normals
# 52 facets

# 1 groups
