# WaveFront *.obj file (generated by Autodesk ATF)

mtllib d760977f-cd9f-4948-87e8-cad9446f7f8b.mtl

g Body1

v -30.000000 0.000000 -10.648551
v -30.000000 2.866117 -10.648551
v 30.000000 2.866117 -10.648551
v 30.000000 0.000000 -10.648551
v -30.000000 4.189804 -14.963026
v 30.000000 4.189804 -14.963026
v -30.000000 5.669454 -9.735897
v 30.000000 5.669454 -9.735897
v -30.000000 10.329677 -11.561205
v 30.000000 10.329677 -11.561205
v -30.000000 7.664839 -18.364848
v 30.000000 7.664839 -18.364848
v -30.000000 10.329677 -18.364848
v 30.000000 10.329677 -18.364848
v -30.000000 5.000000 -20.000000
v 30.000000 5.000000 -20.000000
v -30.000000 92.186543 -20.000000
v -26.000000 92.186543 -20.000000
v -26.000000 96.000001 -20.000000
v -24.000000 96.000001 -20.000000
v -24.000000 100.000000 -20.000000
v 2.941382 100.000000 -20.000000
v 10.000000 90.000000 -20.000000
v 11.862921 91.314965 -20.000000
v 13.000000 88.000001 -20.000000
v 16.915846 91.314965 -20.000000
v 19.017440 85.188122 -20.000000
v 25.000000 94.000001 -20.000000
v 26.000000 74.000001 -20.000000
v 30.000000 69.135112 -20.000000
v -30.000000 0.000000 20.000000
v -30.000000 55.000000 20.000000
v -30.000000 58.739079 16.019239
v -30.000000 64.512600 12.181417
v -30.000000 66.372434 18.425405
v -30.000000 66.372434 13.613072
v -30.000000 70.520997 16.806536
v -30.000000 72.512307 13.613072
v -30.000000 75.000000 20.000000
v -30.000000 92.186543 20.000000
v 30.000000 69.135112 15.739715
v 28.860500 70.520997 16.806536
v 30.000000 66.372434 13.613072
v 27.223209 72.512307 13.613072
v 26.000000 74.000001 17.432592
v 25.950000 75.000000 20.000000
v 30.000000 66.372434 18.425405
v 30.000000 64.512600 12.181417
v 30.000000 58.739079 16.019239
v 30.000000 55.000000 20.000000
v 30.000000 0.000000 20.000000
v -26.000000 92.186543 20.000000
v -26.000000 96.000001 20.000000
v -24.000000 96.000001 20.000000
v -24.000000 100.000000 20.000000
v 2.941382 100.000000 20.000000
v 13.000000 88.000001 20.000000
v 16.915846 91.314965 20.000000
v 19.017440 85.188122 20.000000
v 25.000000 94.000001 20.000000
v 10.000000 90.000000 20.000000
v 11.862921 91.314965 20.000000
vt -0.286612 0.000000 0.000000
vt -0.000000 0.000000 0.000000
vt -0.286612 6.000000 0.000000
vt -0.000000 6.000000 0.000000
vt -0.451296 0.000000 0.000000
vt -0.000000 0.000000 0.000000
vt -0.451296 6.000000 0.000000
vt -0.000000 6.000000 0.000000
vt -0.543252 0.000000 0.000000
vt 0.000000 0.000000 0.000000
vt -0.543252 6.000000 0.000000
vt 0.000000 6.000000 0.000000
vt -0.500494 0.000000 0.000000
vt -0.000000 0.000000 0.000000
vt -0.500494 6.000000 0.000000
vt -0.000000 6.000000 0.000000
vt -0.730691 0.000000 0.000000
vt -0.000000 0.000000 0.000000
vt -0.730691 6.000000 0.000000
vt -0.000000 6.000000 0.000000
vt -0.266484 0.000000 0.000000
vt -0.000000 0.000000 0.000000
vt -0.266484 6.000000 0.000000
vt -0.000000 6.000000 0.000000
vt -0.557487 0.000000 0.000000
vt -0.000000 0.000000 0.000000
vt -0.557487 6.000000 0.000000
vt -0.000000 6.000000 0.000000
vt 0.000000 6.913511 0.000000
vt 0.000000 0.500000 0.000000
vt 0.400000 7.400000 0.000000
vt 6.000000 0.500000 0.000000
vt 1.700000 8.800000 0.000000
vt 2.000000 9.000000 0.000000
vt 1.813708 9.131496 0.000000
vt 6.000000 9.218654 0.000000
vt 5.600000 9.218654 0.000000
vt 5.600000 9.600000 0.000000
vt 5.400000 9.600000 0.000000
vt 2.705862 10.000000 0.000000
vt 5.400000 10.000000 0.000000
vt 1.308415 9.131496 0.000000
vt 1.098256 8.518812 0.000000
vt 0.500000 9.400000 0.000000
vt 0.000000 0.500000 0.000000
vt 0.163515 1.032968 0.000000
vt 0.000000 9.218654 0.000000
vt 0.843880 1.032968 0.000000
vt 3.218142 6.451260 0.000000
vt 1.026410 0.566945 0.000000
vt 3.601924 5.873908 0.000000
vt 4.000000 0.000000 0.000000
vt 4.000000 5.500000 0.000000
vt 0.163515 0.766484 0.000000
vt 0.503697 0.418980 0.000000
vt 0.935145 0.286612 0.000000
vt 0.935145 0.000000 0.000000
vt 3.842541 6.637243 0.000000
vt 3.361307 6.637243 0.000000
vt 3.361307 7.251231 0.000000
vt 4.000000 9.218654 0.000000
vt 4.000000 7.500000 0.000000
vt 3.680654 7.052100 0.000000
vt -0.523534 5.886050 0.000000
vt -0.523534 0.000000 0.000000
vt -0.348640 6.000000 0.000000
vt -0.000000 0.000000 0.000000
vt -0.000000 6.000000 0.000000
vt -0.000000 5.722321 0.000000
vt -0.409902 5.600000 0.000000
vt -0.000000 0.000000 0.000000
vt -0.685430 0.000000 0.000000
vt -0.685430 5.595000 0.000000
vt -0.000000 5.886050 0.000000
vt -0.376345 5.722321 0.000000
vt -0.000000 0.000000 0.000000
vt -0.376345 0.000000 0.000000
vt -0.481233 0.000000 0.000000
vt 0.000000 0.000000 0.000000
vt -0.481233 6.000000 0.000000
vt 0.000000 6.000000 0.000000
vt -0.651509 0.000000 0.000000
vt 0.000000 0.000000 0.000000
vt -0.651509 6.000000 0.000000
vt 0.000000 6.000000 0.000000
vt -0.693271 0.000000 0.000000
vt -0.000000 0.000000 0.000000
vt -0.693271 6.000000 0.000000
vt -0.000000 6.000000 0.000000
vt -0.546143 0.000000 0.000000
vt -0.000000 0.000000 0.000000
vt -0.546143 6.000000 0.000000
vt -0.000000 6.000000 0.000000
vt 4.000000 0.500000 0.000000
vt 4.000000 6.913511 0.000000
vt 3.836485 1.032968 0.000000
vt 3.156120 1.032968 0.000000
vt 3.836485 0.766484 0.000000
vt 0.426029 6.913511 0.000000
vt 0.638693 6.637243 0.000000
vt 0.781858 6.451260 0.000000
vt 0.398076 5.873908 0.000000
vt 2.973590 0.566945 0.000000
vt 0.000000 0.000000 0.000000
vt 3.064855 0.000000 0.000000
vt 0.157459 6.637243 0.000000
vt 0.000000 5.500000 0.000000
vt 3.064855 0.286612 0.000000
vt 3.496303 0.418980 0.000000
vt 6.000000 5.500000 0.000000
vt 0.000000 5.500000 0.000000
vt 6.000000 0.000000 0.000000
vt 0.000000 0.000000 0.000000
vt -0.000000 4.000000 0.000000
vt -0.381346 4.000000 0.000000
vt 0.000000 0.000000 0.000000
vt -0.381346 0.000000 0.000000
vt -0.000000 4.000000 0.000000
vt -0.200000 4.000000 0.000000
vt 0.000000 0.000000 0.000000
vt -0.200000 0.000000 0.000000
vt -0.000000 4.000000 0.000000
vt -0.400000 4.000000 0.000000
vt 0.000000 0.000000 0.000000
vt -0.400000 0.000000 0.000000
vt -0.000000 4.000000 0.000000
vt -0.400000 4.000000 0.000000
vt 0.000000 0.000000 0.000000
vt -0.400000 0.000000 0.000000
vt -2.000000 -2.400000 0.000000
vt 2.000000 -2.400000 0.000000
vt -2.000000 0.294138 0.000000
vt 2.000000 0.294138 0.000000
vt -0.000000 4.000000 0.000000
vt -0.513058 4.000000 0.000000
vt 0.000000 0.000000 0.000000
vt -0.513058 -0.000000 0.000000
vt -0.000000 4.000000 0.000000
vt -0.647726 4.000000 0.000000
vt -0.000000 0.000000 0.000000
vt -0.647726 0.000000 0.000000
vt -0.000000 4.000000 0.000000
vt -1.065083 4.000000 0.000000
vt 0.000000 0.000000 0.000000
vt -1.065083 -0.000000 0.000000
vt -0.100125 0.000000 0.000000
vt -0.000000 0.256741 0.000000
vt -2.002498 0.000000 0.000000
vt -2.002498 4.000000 0.000000
vt -0.000000 4.000000 0.000000
vt -0.000000 0.426029 0.000000
vt -0.000000 4.000000 0.000000
vt -0.179420 0.319346 0.000000
vt -0.437219 0.638693 0.000000
vt -0.629819 4.000000 0.000000
vt -0.629819 0.256741 0.000000
vt -0.000000 4.000000 0.000000
vt -1.224027 4.000000 0.000000
vt -0.000000 0.000000 0.000000
vt -1.224027 0.000000 0.000000
vt -0.000000 4.000000 0.000000
vt -0.228026 4.000000 0.000000
vt 0.000000 0.000000 0.000000
vt -0.228026 -0.000000 0.000000
vt -0.000000 4.000000 0.000000
vt -0.350456 4.000000 0.000000
vt -0.000000 0.000000 0.000000
vt -0.350456 0.000000 0.000000
vt 5.595000 7.500000 0.000000
vt 4.901744 8.518812 0.000000
vt 0.000000 7.500000 0.000000
vt 4.300000 8.800000 0.000000
vt 4.000000 9.000000 0.000000
vt 4.186292 9.131496 0.000000
vt 5.500000 9.400000 0.000000
vt 4.691585 9.131496 0.000000
vt 3.294138 10.000000 0.000000
vt 0.600000 9.600000 0.000000
vt 0.400000 9.218654 0.000000
vt 0.000000 9.218654 0.000000
vt 0.600000 10.000000 0.000000
vt 0.400000 9.600000 0.000000
vt 3.000000 1.064855 0.000000
vt -3.000000 1.064855 0.000000
vt 3.000000 -2.000000 0.000000
vt -3.000000 -2.000000 0.000000
vn 0.000000 0.000000 -0.100000
vn 0.000000 0.000000 -0.100000
vn 0.000000 0.000000 -0.100000
vn 0.000000 0.000000 -0.100000
vn 0.000000 -0.095602 -0.029331
vn 0.000000 -0.095602 -0.029331
vn 0.000000 -0.095602 -0.029331
vn 0.000000 -0.095602 -0.029331
vn -0.000000 0.096219 -0.027237
vn -0.000000 0.096219 -0.027237
vn -0.000000 0.096219 -0.027237
vn -0.000000 0.096219 -0.027237
vn 0.000000 -0.036470 -0.093112
vn 0.000000 -0.036470 -0.093112
vn 0.000000 -0.036470 -0.093112
vn 0.000000 -0.036470 -0.093112
vn 0.000000 -0.093112 0.036470
vn 0.000000 -0.093112 0.036470
vn 0.000000 -0.093112 0.036470
vn 0.000000 -0.093112 0.036470
vn 0.000000 0.000000 -0.100000
vn 0.000000 0.000000 -0.100000
vn 0.000000 0.000000 -0.100000
vn 0.000000 0.000000 -0.100000
vn 0.000000 -0.029331 0.095602
vn 0.000000 -0.029331 0.095602
vn 0.000000 -0.029331 0.095602
vn 0.000000 -0.029331 0.095602
vn 0.000000 0.000000 -0.100000
vn 0.000000 0.000000 -0.100000
vn 0.000000 0.000000 -0.100000
vn 0.000000 0.000000 -0.100000
vn 0.000000 0.000000 -0.100000
vn 0.000000 0.000000 -0.100000
vn 0.000000 0.000000 -0.100000
vn 0.000000 0.000000 -0.100000
vn 0.000000 0.000000 -0.100000
vn 0.000000 0.000000 -0.100000
vn 0.000000 0.000000 -0.100000
vn 0.000000 0.000000 -0.100000
vn 0.000000 0.000000 -0.100000
vn 0.000000 0.000000 -0.100000
vn 0.000000 0.000000 -0.100000
vn 0.000000 0.000000 -0.100000
vn -0.100000 0.000000 0.000000
vn -0.100000 0.000000 0.000000
vn -0.100000 0.000000 0.000000
vn -0.100000 0.000000 0.000000
vn -0.100000 0.000000 0.000000
vn -0.100000 0.000000 0.000000
vn -0.100000 0.000000 0.000000
vn -0.100000 0.000000 0.000000
vn -0.100000 0.000000 0.000000
vn -0.100000 0.000000 0.000000
vn -0.100000 0.000000 0.000000
vn -0.100000 0.000000 0.000000
vn -0.100000 0.000000 0.000000
vn -0.100000 0.000000 0.000000
vn -0.100000 0.000000 0.000000
vn -0.100000 0.000000 0.000000
vn -0.100000 0.000000 0.000000
vn -0.100000 0.000000 0.000000
vn -0.100000 0.000000 0.000000
vn 0.000000 -0.060998 0.079242
vn 0.000000 -0.060998 0.079242
vn 0.000000 -0.060998 0.079242
vn 0.000000 -0.060998 0.079242
vn 0.000000 -0.060998 0.079242
vn 0.000000 -0.093181 0.036294
vn 0.000000 -0.093181 0.036294
vn 0.000000 -0.093181 0.036294
vn 0.000000 -0.093181 0.036294
vn 0.000000 -0.093181 0.036294
vn 0.000000 0.084855 0.052912
vn 0.000000 0.084855 0.052912
vn 0.000000 0.084855 0.052912
vn 0.000000 0.084855 0.052912
vn -0.000000 0.100000 -0.000000
vn -0.000000 0.100000 -0.000000
vn -0.000000 0.100000 -0.000000
vn -0.000000 0.100000 -0.000000
vn 0.000000 -0.095839 0.028547
vn 0.000000 -0.095839 0.028547
vn 0.000000 -0.095839 0.028547
vn 0.000000 -0.095839 0.028547
vn 0.000000 0.055358 0.083279
vn 0.000000 0.055358 0.083279
vn 0.000000 0.055358 0.083279
vn 0.000000 0.055358 0.083279
vn 0.000000 0.072889 0.068463
vn 0.000000 0.072889 0.068463
vn 0.000000 0.072889 0.068463
vn 0.000000 0.072889 0.068463
vn 0.100000 -0.000000 0.000000
vn 0.100000 -0.000000 0.000000
vn 0.100000 -0.000000 0.000000
vn 0.100000 -0.000000 0.000000
vn 0.100000 -0.000000 0.000000
vn 0.100000 -0.000000 0.000000
vn 0.100000 -0.000000 0.000000
vn 0.100000 -0.000000 0.000000
vn 0.100000 -0.000000 0.000000
vn 0.100000 -0.000000 0.000000
vn 0.100000 -0.000000 0.000000
vn 0.100000 -0.000000 0.000000
vn 0.100000 -0.000000 0.000000
vn 0.100000 -0.000000 0.000000
vn 0.100000 -0.000000 0.000000
vn 0.100000 -0.000000 0.000000
vn 0.000000 0.000000 0.100000
vn 0.000000 0.000000 0.100000
vn 0.000000 0.000000 0.100000
vn 0.000000 0.000000 0.100000
vn -0.100000 0.000000 -0.000000
vn -0.100000 0.000000 -0.000000
vn -0.100000 0.000000 -0.000000
vn -0.100000 0.000000 -0.000000
vn -0.000000 0.100000 -0.000000
vn -0.000000 0.100000 -0.000000
vn -0.000000 0.100000 -0.000000
vn -0.000000 0.100000 -0.000000
vn -0.100000 0.000000 -0.000000
vn -0.100000 0.000000 -0.000000
vn -0.100000 0.000000 -0.000000
vn -0.100000 0.000000 -0.000000
vn -0.000000 0.100000 -0.000000
vn -0.000000 0.100000 -0.000000
vn -0.000000 0.100000 -0.000000
vn -0.000000 0.100000 -0.000000
vn 0.000000 0.100000 0.000000
vn 0.000000 0.100000 0.000000
vn 0.000000 0.100000 0.000000
vn 0.000000 0.100000 0.000000
vn -0.064612 0.076324 -0.000000
vn -0.064612 0.076324 -0.000000
vn -0.064612 0.076324 -0.000000
vn -0.064612 0.076324 -0.000000
vn 0.094590 0.032446 0.000000
vn 0.094590 0.032446 0.000000
vn 0.094590 0.032446 0.000000
vn 0.094590 0.032446 0.000000
vn -0.082734 0.056170 -0.000000
vn -0.082734 0.056170 -0.000000
vn -0.082734 0.056170 -0.000000
vn -0.082734 0.056170 -0.000000
vn 0.099875 0.004994 0.000000
vn 0.099875 0.004994 0.000000
vn 0.099875 0.004994 0.000000
vn 0.099875 0.004994 0.000000
vn 0.099875 0.004994 0.000000
vn 0.077243 0.063510 0.000000
vn 0.077243 0.063510 0.000000
vn 0.077243 0.063510 0.000000
vn 0.077243 0.063510 0.000000
vn 0.077243 0.063510 0.000000
vn 0.077243 0.063510 0.000000
vn 0.081698 0.057667 0.000000
vn 0.081698 0.057667 0.000000
vn 0.081698 0.057667 0.000000
vn 0.081698 0.057667 0.000000
vn -0.057667 0.081698 -0.000000
vn -0.057667 0.081698 -0.000000
vn -0.057667 0.081698 -0.000000
vn -0.057667 0.081698 -0.000000
vn 0.094590 0.032446 0.000000
vn 0.094590 0.032446 0.000000
vn 0.094590 0.032446 0.000000
vn 0.094590 0.032446 0.000000
vn 0.000000 0.000000 0.100000
vn 0.000000 0.000000 0.100000
vn 0.000000 0.000000 0.100000
vn 0.000000 0.000000 0.100000
vn 0.000000 0.000000 0.100000
vn 0.000000 0.000000 0.100000
vn 0.000000 0.000000 0.100000
vn 0.000000 0.000000 0.100000
vn 0.000000 0.000000 0.100000
vn 0.000000 0.000000 0.100000
vn 0.000000 0.000000 0.100000
vn 0.000000 0.000000 0.100000
vn 0.000000 0.000000 0.100000
vn 0.000000 0.000000 0.100000
vn 0.000000 -0.100000 0.000000
vn 0.000000 -0.100000 0.000000
vn 0.000000 -0.100000 0.000000
vn 0.000000 -0.100000 0.000000
usemtl Steel_-_Satin
f 1/1/1 2/2/2 4/3/3
f 4/3/3 2/2/2 3/4/4
f 2/5/5 5/6/6 3/7/7
f 3/7/7 5/6/6 6/8/8
f 5/9/9 7/10/10 6/11/11
f 6/11/11 7/10/10 8/12/12
f 7/13/13 9/14/14 8/15/15
f 8/15/15 9/14/14 10/16/16
f 9/17/17 11/18/18 10/19/19
f 10/19/19 11/18/18 12/20/20
f 11/21/21 13/22/22 12/23/23
f 12/23/23 13/22/22 14/24/24
f 13/25/25 15/26/26 14/27/27
f 14/27/27 15/26/26 16/28/28
f 30/29/29 16/30/30 29/31/31
f 29/31/31 16/30/30 15/32/32
f 29/31/31 15/32/32 25/33/33
f 25/33/33 15/32/32 23/34/34
f 25/33/33 23/34/34 24/35/35
f 17/36/36 18/37/37 15/32/32
f 15/32/32 18/37/37 23/34/34
f 19/38/38 20/39/39 18/37/37
f 18/37/37 20/39/39 22/40/40
f 18/37/37 22/40/40 23/34/34
f 20/39/39 21/41/41 22/40/40
f 26/42/42 27/43/43 25/33/33
f 25/33/33 27/43/43 29/31/31
f 27/43/43 28/44/44 29/31/31
f 15/45/45 13/46/46 17/47/47
f 17/47/47 13/46/46 9/48/48
f 17/47/47 9/48/48 34/49/49
f 34/49/49 9/48/48 7/50/50
f 34/49/49 7/50/50 33/51/51
f 33/51/51 7/50/50 31/52/52
f 33/51/51 31/52/52 32/53/53
f 13/46/46 11/54/54 9/48/48
f 5/55/55 2/56/56 7/50/50
f 7/50/50 2/56/56 1/57/57
f 7/50/50 1/57/57 31/52/52
f 35/58/58 36/59/59 34/49/49
f 34/49/49 36/59/59 38/60/60
f 34/49/49 38/60/60 17/47/47
f 17/47/47 38/60/60 40/61/61
f 40/61/61 38/60/60 39/62/62
f 36/59/59 37/63/63 38/60/60
f 42/64/64 37/65/65 41/66/66
f 41/66/66 37/65/65 36/67/67
f 41/66/66 36/67/67 43/68/68
f 44/69/69 45/70/70 38/71/71
f 38/71/71 45/70/70 39/72/72
f 39/72/72 45/70/70 46/73/73
f 42/74/74 44/75/75 37/76/76
f 37/76/76 44/75/75 38/77/77
f 36/78/78 35/79/79 43/80/80
f 43/80/80 35/79/79 47/81/81
f 35/82/82 34/83/83 47/84/84
f 47/84/84 34/83/83 48/85/85
f 34/86/86 33/87/87 48/88/88
f 48/88/88 33/87/87 49/89/89
f 33/90/90 32/91/91 49/92/92
f 49/92/92 32/91/91 50/93/93
f 16/94/94 30/95/95 14/96/96
f 14/96/96 30/95/95 10/97/97
f 14/96/96 10/97/97 12/98/98
f 41/99/99 43/100/100 30/95/95
f 30/95/95 43/100/100 48/101/101
f 30/95/95 48/101/101 10/97/97
f 10/97/97 48/101/101 49/102/102
f 10/97/97 49/102/102 8/103/103
f 8/103/103 49/102/102 51/104/104
f 8/103/103 51/104/104 4/105/105
f 43/100/100 47/106/106 48/101/101
f 49/102/102 50/107/107 51/104/104
f 4/105/105 3/108/108 8/103/103
f 8/103/103 3/108/108 6/109/109
f 50/110/110 32/111/111 51/112/112
f 51/112/112 32/111/111 31/113/113
f 19/114/114 18/115/115 53/116/116
f 53/116/116 18/115/115 52/117/117
f 20/118/118 19/119/119 54/120/120
f 54/120/120 19/119/119 53/121/121
f 21/122/122 20/123/123 55/124/124
f 55/124/124 20/123/123 54/125/125
f 18/126/126 17/127/127 52/128/128
f 52/128/128 17/127/127 40/129/129
f 21/130/130 55/131/131 22/132/132
f 22/132/132 55/131/131 56/133/133
f 26/134/134 25/135/135 58/136/136
f 58/136/136 25/135/135 57/137/137
f 27/138/138 26/139/139 59/140/140
f 59/140/140 26/139/139 58/141/141
f 28/142/142 27/143/143 60/144/144
f 60/144/144 27/143/143 59/145/145
f 46/146/146 45/147/147 60/148/148
f 60/148/148 45/147/147 28/149/149
f 28/149/149 45/147/147 29/150/150
f 41/151/151 30/152/152 42/153/153
f 42/153/153 30/152/152 44/154/154
f 44/154/154 30/152/152 29/155/155
f 44/154/154 29/155/155 45/156/156
f 23/157/157 22/158/158 61/159/159
f 61/159/159 22/158/158 56/160/160
f 24/161/161 23/162/162 62/163/163
f 62/163/163 23/162/162 61/164/164
f 25/165/165 24/166/166 57/167/167
f 57/167/167 24/166/166 62/168/168
f 46/169/169 59/170/170 39/171/171
f 39/171/171 59/170/170 57/172/172
f 39/171/171 57/172/172 61/173/173
f 61/173/173 57/172/172 62/174/174
f 46/169/169 60/175/175 59/170/170
f 59/170/170 58/176/176 57/172/172
f 56/177/177 54/178/178 61/173/173
f 61/173/173 54/178/178 52/179/179
f 61/173/173 52/179/179 39/171/171
f 39/171/171 52/179/179 40/180/180
f 56/177/177 55/181/181 54/178/178
f 54/178/178 53/182/182 52/179/179
f 1/183/183 4/184/184 31/185/185
f 31/185/185 4/184/184 51/186/186
# 62 vertices
# 186 texture params
# 186 normals
# 120 facets

# 1 groups
